ModelForces
version=1
nRows=5
nColumns=71
inDegrees=no

This file contains the forces exerted on a model during a simulation.

A force is a generalized force, meaning that it can be either a force (N) or a torque (Nm).

Units are S.I. units (second, meters, Newtons, ...)
Angles are in degrees.

endheader
time	semimem_r	semiten_r	bifemlh_r	bifemsh_r	sar_r	grac_r	rect_fem_r	vas_med_r	vas_int_r	vas_lat_r	med_gas_r	lat_gas_r	contactForce_femur_lat_meniscii_l.femur_lat_l.force.X	contactForce_femur_lat_meniscii_l.femur_lat_l.force.Y	contactForce_femur_lat_meniscii_l.femur_lat_l.force.Z	contactForce_femur_lat_meniscii_l.femur_lat_l.torque.X	contactForce_femur_lat_meniscii_l.femur_lat_l.torque.Y	contactForce_femur_lat_meniscii_l.femur_lat_l.torque.Z	contactForce_femur_lat_meniscii_l.meniscus_lat_l.force.X	contactForce_femur_lat_meniscii_l.meniscus_lat_l.force.Y	contactForce_femur_lat_meniscii_l.meniscus_lat_l.force.Z	contactForce_femur_lat_meniscii_l.meniscus_lat_l.torque.X	contactForce_femur_lat_meniscii_l.meniscus_lat_l.torque.Y	contactForce_femur_lat_meniscii_l.meniscus_lat_l.torque.Z	contactForce_femur_med_meniscii_l.femur_med_l.force.X	contactForce_femur_med_meniscii_l.femur_med_l.force.Y	contactForce_femur_med_meniscii_l.femur_med_l.force.Z	contactForce_femur_med_meniscii_l.femur_med_l.torque.X	contactForce_femur_med_meniscii_l.femur_med_l.torque.Y	contactForce_femur_med_meniscii_l.femur_med_l.torque.Z	contactForce_femur_med_meniscii_l.meniscus_med_l.force.X	contactForce_femur_med_meniscii_l.meniscus_med_l.force.Y	contactForce_femur_med_meniscii_l.meniscus_med_l.force.Z	contactForce_femur_med_meniscii_l.meniscus_med_l.torque.X	contactForce_femur_med_meniscii_l.meniscus_med_l.torque.Y	contactForce_femur_med_meniscii_l.meniscus_med_l.torque.Z	contactForce_femur_lat_meniscii_r.femur_lat_r.force.X	contactForce_femur_lat_meniscii_r.femur_lat_r.force.Y	contactForce_femur_lat_meniscii_r.femur_lat_r.force.Z	contactForce_femur_lat_meniscii_r.femur_lat_r.torque.X	contactForce_femur_lat_meniscii_r.femur_lat_r.torque.Y	contactForce_femur_lat_meniscii_r.femur_lat_r.torque.Z	contactForce_femur_lat_meniscii_r.meniscus_lat_r.force.X	contactForce_femur_lat_meniscii_r.meniscus_lat_r.force.Y	contactForce_femur_lat_meniscii_r.meniscus_lat_r.force.Z	contactForce_femur_lat_meniscii_r.meniscus_lat_r.torque.X	contactForce_femur_lat_meniscii_r.meniscus_lat_r.torque.Y	contactForce_femur_lat_meniscii_r.meniscus_lat_r.torque.Z	contactForce_femur_med_meniscii_r.femur_med_r.force.X	contactForce_femur_med_meniscii_r.femur_med_r.force.Y	contactForce_femur_med_meniscii_r.femur_med_r.force.Z	contactForce_femur_med_meniscii_r.femur_med_r.torque.X	contactForce_femur_med_meniscii_r.femur_med_r.torque.Y	contactForce_femur_med_meniscii_r.femur_med_r.torque.Z	contactForce_femur_med_meniscii_r.meniscus_med_r.force.X	contactForce_femur_med_meniscii_r.meniscus_med_r.force.Y	contactForce_femur_med_meniscii_r.meniscus_med_r.force.Z	contactForce_femur_med_meniscii_r.meniscus_med_r.torque.X	contactForce_femur_med_meniscii_r.meniscus_med_r.torque.Y	contactForce_femur_med_meniscii_r.meniscus_med_r.torque.Z	aACL_R	pACL_R	aPCL_R	pPCL_R	aMCL_R	aLCL_R	aPCL_L	pPCL_L	aMCL_L	aLCL_L
      0.13890178	     90.22556084	    102.13709726	    125.38459137	    196.36327353	     67.00388493	     57.31241230	     29.95946326	      4.52355491	      0.00000000	      8.50129409	      0.00000000	      0.00000000	      2.07883514	      4.81930732	      1.20500734	     -0.39411733	     -0.05728799	      0.90959631	     -2.07883514	     -4.81930732	     -1.20500734	     -0.12712547	      0.07904751	     -0.09739208	      0.00000000	      0.00000000	      0.00000000	      0.00000000	      0.00000000	      0.00000000	      0.00000000	      0.00000000	      0.00000000	      0.00000000	      0.00000000	      0.00000000	     18.96883349	    155.31951828	      6.24457815	     -6.31178019	      0.65243177	      7.04385389	    -18.96883349	   -155.31951828	     -6.24457815	      4.46866271	     -0.78421586	      1.83271550	     18.27396810	    425.81109979	     48.14150071	    -10.54966971	     -0.02637684	      5.16403181	    -18.27396810	   -425.81109979	    -48.14150071	     -6.35693378	     -0.54224799	      6.28300431	      0.00000000	      0.00000000	      0.00000000	      0.00000000	      0.00000000	      0.00000000	     11.25935462	      0.00000000	     24.21141863	     33.90139131
      0.14079414	     88.75786155	    101.79088906	    124.61221900	    196.74331617	     66.88277836	     57.28307410	     28.08777996	     20.39771300	      8.95233613	     28.36325009	      0.00000000	      0.00000000	      2.32115812	      4.52070144	      1.52681269	     -0.53868529	     -0.06601672	      1.01181871	     -2.32115812	     -4.52070144	     -1.52681269	     -0.10520222	      0.09053633	     -0.10553932	      0.00000000	      0.00000000	      0.00000000	      0.00000000	      0.00000000	      0.00000000	      0.00000000	      0.00000000	      0.00000000	      0.00000000	      0.00000000	      0.00000000	     10.14777137	    157.04945773	      6.94042869	     -6.64344448	      0.43036797	      3.30136314	    -10.14777137	   -157.04945773	     -6.94042869	      4.52962605	     -0.53891366	      2.24549701	     14.78277276	    423.91108467	     48.17685486	    -10.58593544	      0.04680770	      3.66355531	    -14.78277276	   -423.91108467	    -48.17685486	     -6.37131458	     -0.60945288	      6.49042220	      0.00000000	      0.00000000	     24.47983744	      0.00000000	      0.00000000	      0.00000000	     11.27293941	      0.00000000	     24.16614458	     33.99547455
      0.14205363	     87.29566289	    100.84844018	    123.34465539	    193.74750628	     66.22997243	     56.65525185	     30.84319136	     22.46390196	     19.09825717	     24.52014404	      0.00000000	      0.00000000	      2.42419009	      4.56409988	      1.61302208	     -0.57423056	     -0.06910856	      1.05655376	     -2.42419009	     -4.56409988	     -1.61302208	     -0.10416373	      0.09495484	     -0.11013663	      0.00000000	      0.00000000	      0.00000000	      0.00000000	      0.00000000	      0.00000000	      0.00000000	      0.00000000	      0.00000000	      0.00000000	      0.00000000	      0.00000000	      7.63114635	    163.86947631	      5.49291950	     -6.19670646	      0.35933649	      2.18558408	     -7.63114635	   -163.86947631	     -5.49291950	      4.65209799	     -0.44403170	      2.48699366	     14.81288788	    430.22578373	     47.14349853	    -10.00652558	      0.04822118	      3.60100769	    -14.81288788	   -430.22578373	    -47.14349853	     -6.55388260	     -0.60360696	      6.67079576	      0.00000000	      0.00000000	     22.66843447	      0.00000000	      0.00000000	      0.00000000	     11.42967059	      0.00000000	     24.11924466	     34.05414426
      0.14331312	     85.58769420	     99.61557040	    121.66685314	    190.17132534	     65.59609658	     48.91934250	     30.87341456	     13.16346604	     26.32852839	     33.82893536	      0.00000000	      0.00000000	      2.33660765	      4.64568624	      1.59459206	     -0.56450903	     -0.06730104	      1.02027249	     -2.33660765	     -4.64568624	     -1.59459206	     -0.10812793	      0.09242675	     -0.10783692	      0.00000000	      0.00000000	      0.00000000	      0.00000000	      0.00000000	      0.00000000	      0.00000000	      0.00000000	      0.00000000	      0.00000000	      0.00000000	      0.00000000	      4.62497256	    166.17250808	      5.11249188	     -6.09125515	      0.27441805	      0.88943386	     -4.62497256	   -166.17250808	     -5.11249188	      4.69251580	     -0.34512746	      2.67420833	     14.59252863	    432.29303092	     46.84401465	     -9.81917364	      0.05883216	      3.45827661	    -14.59252863	   -432.29303092	    -46.84401465	     -6.63895760	     -0.61390796	      6.79108304	      0.00000000	      0.00000000	     21.91676363	      0.00000000	      0.00000000	      0.00000000	     11.61070882	      0.00000000	     24.10761146	     34.16097281
      0.14442756	     84.10433553	     98.61205184	    120.16803589	    187.94072068	     65.35741950	     52.23497525	     30.41496930	     21.60325286	      0.25574769	      1.96659431	      0.00000000	      0.00000000	      1.67261586	      4.59036686	      1.04207067	     -0.33122744	     -0.04715327	      0.73827831	     -1.67261586	     -4.59036686	     -1.04207067	     -0.12629849	      0.06536944	     -0.08415164	      0.00000000	      0.00000000	      0.00000000	      0.00000000	      0.00000000	      0.00000000	      0.00000000	      0.00000000	      0.00000000	      0.00000000	      0.00000000	      0.00000000	     -0.92623739	    172.70863075	      4.70276745	     -6.07063349	      0.13341859	     -1.49686938	      0.92623739	   -172.70863075	     -4.70276745	      4.84366173	     -0.18158318	      3.02404963	     13.52643208	    437.53634491	     46.33480044	     -9.46715289	      0.08128472	      2.94915522	    -13.52643208	   -437.53634491	    -46.33480044	     -6.79574947	     -0.63063038	      6.98587704	      0.00000000	      0.00000000	     22.23129846	      0.00000000	      0.00000000	      0.00000000	     11.55446723	      0.00000000	     24.18441942	     34.36453511
